<?xml version="1.0" encoding="UTF-8"?>
<svg width="335px" height="53px" viewBox="0 0 335 53" version="1.1" xmlns="http://www.w3.org/2000/svg" xmlns:xlink="http://www.w3.org/1999/xlink">
    <title>Untitled 8</title>
    <defs>
        <linearGradient x1="0%" y1="0%" x2="100%" y2="0%" id="linearGradient-1">
            <stop stop-color="#085B20" offset="0%"></stop>
            <stop stop-color="#41E296" offset="100%"></stop>
        </linearGradient>
    </defs>
    <g id="Page-1" stroke="none" stroke-width="1" fill="none" fill-rule="evenodd">
        <g id="Group" fill="url(#linearGradient-1)" fill-rule="nonzero">
            <g id="ffdc9051-84db-4280-919e-7ce88599e77e">
                <path d="M28.5490831,40.0204082 L28.5490831,46.5102041 L7.22761597,46.5102041 L7.22761597,8.29251701 L28.5490831,8.29251701 L28.5490831,14.7823129 L35.776699,14.7823129 L35.776699,6.64431487 L27.4133148,1.80272109 L8.36338419,1.80272109 L0,6.64431487 L0,48.1584062 L8.36338419,53 L27.4133148,53 L35.776699,48.1584062 L35.776699,40.0204082 L28.5490831,40.0204082 Z M75.8899676,46.3556851 L54.3619972,46.3556851 L54.3619972,37.0845481 L75.8899676,37.0845481 L75.8899676,21.0660836 L67.5265834,16.2244898 L55.7042688,16.2244898 L47.3408846,21.0660836 L47.3408846,47.797862 L55.7042688,52.6394558 L75.8899676,52.6394558 L75.8899676,46.3556851 Z M54.3619972,22.5082604 L68.868855,22.5082604 L68.868855,30.8007775 L54.3619972,30.8007775 L54.3619972,22.5082604 Z M118.171521,21.0660836 L109.808137,16.2244898 L99.5862228,16.2244898 L94.4752658,19.2118562 L92.7199877,16.2244898 L87.4541532,16.2244898 L87.4541532,52.6394558 L94.4752658,52.6394558 L94.4752658,22.5082604 L111.150408,22.5082604 L111.150408,52.6394558 L118.171521,52.6394558 L118.171521,21.0660836 Z M126.84466,22.8688047 L133.504392,22.8688047 L133.504392,47.797862 L141.867776,52.6394558 L149.198644,52.6394558 L149.198644,46.3556851 L140.525505,46.3556851 L140.525505,22.8688047 L149.198644,22.8688047 L149.198644,16.585034 L140.525505,16.585034 L140.525505,6.48979592 L133.504392,10.5587949 L133.504392,16.585034 L126.84466,16.585034 L126.84466,22.8688047 Z M179.451379,22.8688047 L179.451379,16.585034 L171.449376,16.585034 L166.286793,19.5724004 L164.583141,16.585034 L159.317306,16.585034 L159.317306,52.6394558 L166.286793,52.6394558 L166.286793,22.8688047 L179.451379,22.8688047 Z M192.977346,37.8571429 L207.484204,37.8571429 L207.484204,46.7162293 L192.977346,46.7162293 L192.977346,37.8571429 Z M194.371244,53 L202.373247,53 L207.484204,50.0641399 L212.646787,53 L214.505317,53 L214.505317,21.4266278 L206.141933,16.585034 L189.570042,16.585034 L189.570042,22.8688047 L207.484204,22.8688047 L207.484204,31.5733722 L194.371244,31.5733722 L185.956234,36.414966 L185.956234,48.1584062 L194.371244,53 Z M234.484512,52.6394558 L241.763754,52.6394558 L241.763754,46.3556851 L233.090615,46.3556851 L233.090615,0 L226.069502,0 L226.069502,47.797862 L234.484512,52.6394558 Z M287.659115,47.797862 L287.659115,7.00485909 L279.295731,2.16326531 L249.714132,2.16326531 L249.714132,52.6394558 L279.295731,52.6394558 L287.659115,47.797862 Z M256.941748,8.65306122 L280.431499,8.65306122 L280.431499,46.1496599 L256.941748,46.1496599 L256.941748,8.65306122 Z M335,22.8688047 L335,7.00485909 L326.636616,2.16326531 L300.668824,2.16326531 L300.668824,52.6394558 L326.636616,52.6394558 L335,47.797862 L335,30.234208 L328.701649,26.6287658 L328.701649,26.4742468 L335,22.8688047 Z M307.89644,29.7706511 L327.772384,29.7706511 L327.772384,46.1496599 L307.89644,46.1496599 L307.89644,29.7706511 Z M307.89644,8.65306122 L327.772384,8.65306122 L327.772384,23.2808552 L307.89644,23.2808552 L307.89644,8.65306122 Z" id="Shape"></path>
            </g>
        </g>
    </g>
</svg>