<?xml version="1.0" encoding="UTF-8"?>
<svg width="380px" height="61px" viewBox="0 0 380 61" version="1.1" xmlns="http://www.w3.org/2000/svg" xmlns:xlink="http://www.w3.org/1999/xlink">
    <title>Untitled 9</title>
    <g id="Page-1" stroke="none" stroke-width="1" fill="none" fill-rule="evenodd">
        <g id="isolated-monochrome-white" transform="translate(1.000000, 0.000000)" fill="#FFFFFF" fill-rule="nonzero">
            <path d="M32.2448981,45.3061226 L32.2448981,52.6530614 L8.16326534,52.6530614 L8.16326534,9.38775514 L32.2448981,9.38775514 L32.2448981,16.7346939 L40.4081634,16.7346939 L40.4081634,7.52186592 L30.9620992,2.04081633 L9.44606417,2.04081633 L0,7.52186592 L0,54.5189506 L9.44606417,60.0000002 L30.9620992,60.0000002 L40.4081634,54.5189506 L40.4081634,45.3061226 L32.2448981,45.3061226 Z M85.714286,52.4781343 L61.3994171,52.4781343 L61.3994171,41.9825074 L85.714286,41.9825074 L85.714286,23.8483966 L76.2682219,18.367347 L62.9154521,18.367347 L53.469388,23.8483966 L53.469388,54.1107874 L62.9154521,59.591837 L85.714286,59.591837 L85.714286,52.4781343 Z M61.3994171,25.4810497 L77.7842568,25.4810497 L77.7842568,34.8688048 L61.3994171,34.8688048 L61.3994171,25.4810497 Z M133.469388,23.8483966 L124.023324,18.367347 L112.478135,18.367347 L106.70554,21.7492712 L104.723032,18.367347 L98.7755106,18.367347 L98.7755106,59.591837 L106.70554,59.591837 L106.70554,25.4810497 L125.539359,25.4810497 L125.539359,59.591837 L133.469388,59.591837 L133.469388,23.8483966 Z M143.265307,25.8892129 L150.787173,25.8892129 L150.787173,54.1107874 L160.233237,59.591837 L168.51312,59.591837 L168.51312,52.4781343 L158.717202,52.4781343 L158.717202,25.8892129 L168.51312,25.8892129 L168.51312,18.7755103 L158.717202,18.7755103 L158.717202,7.3469388 L150.787173,11.9533528 L150.787173,18.7755103 L143.265307,18.7755103 L143.265307,25.8892129 Z M202.682216,25.8892129 L202.682216,18.7755103 L193.644316,18.7755103 L187.813412,22.1574345 L185.889214,18.7755103 L179.941692,18.7755103 L179.941692,59.591837 L187.813412,59.591837 L187.813412,25.8892129 L202.682216,25.8892129 Z M217.959184,42.857143 L234.344024,42.857143 L234.344024,52.8862976 L217.959184,52.8862976 L217.959184,42.857143 Z M219.533529,60.0000002 L228.571429,60.0000002 L234.344024,56.676385 L240.174928,60.0000002 L242.274053,60.0000002 L242.274053,24.2565599 L232.827989,18.7755103 L214.110788,18.7755103 L214.110788,25.8892129 L234.344024,25.8892129 L234.344024,35.7434404 L219.533529,35.7434404 L210.029155,41.2244899 L210.029155,54.5189506 L219.533529,60.0000002 Z M264.839651,59.591837 L273.061226,59.591837 L273.061226,52.4781343 L263.265307,52.4781343 L263.265307,0 L255.335278,0 L255.335278,54.1107874 L264.839651,59.591837 Z M324.89796,54.1107874 L324.89796,7.93002918 L315.451896,2.4489796 L282.040817,2.4489796 L282.040817,59.591837 L315.451896,59.591837 L324.89796,54.1107874 Z M290.204083,9.7959184 L316.734695,9.7959184 L316.734695,52.2448982 L290.204083,52.2448982 L290.204083,9.7959184 Z M378.367348,25.8892129 L378.367348,7.93002918 L368.921284,2.4489796 L339.591838,2.4489796 L339.591838,59.591837 L368.921284,59.591837 L378.367348,54.1107874 L378.367348,34.2274054 L371.253646,30.1457727 L371.253646,29.9708456 L378.367348,25.8892129 Z M347.755103,33.702624 L370.204083,33.702624 L370.204083,52.2448982 L347.755103,52.2448982 L347.755103,33.702624 Z M347.755103,9.7959184 L370.204083,9.7959184 L370.204083,26.3556852 L347.755103,26.3556852 L347.755103,9.7959184 Z" id="Shape"></path>
        </g>
    </g>
</svg>