<svg data-v-423bf9ae="" xmlns="http://www.w3.org/2000/svg" viewBox="0 0 334.4977835649592 60" class="font"><!----><!----><!----><g data-v-423bf9ae="" id="4213a02a-5009-4beb-a90a-3079f368c779" fill="black" transform="matrix(4.497751394534302,0,0,4.497751394534302,-3.958027952708022,-24.602700852294674)"><path d="M5.68 5.47L9.63 5.47L9.63 5.47Q10.83 5.47 11.66 5.62L11.66 5.62L11.66 5.62Q12.48 5.76 13.02 6.06L13.02 6.06L13.02 6.06Q13.55 6.36 13.84 6.81L13.84 6.81L13.84 6.81Q14.12 7.26 14.26 7.87L14.26 7.87L14.26 7.87Q14.39 8.48 14.41 9.24L14.41 9.24L14.41 9.24Q14.44 10.01 14.44 10.94L14.44 10.94L14.44 10.94Q14.44 11.87 14.41 12.63L14.41 12.63L14.41 12.63Q14.39 13.40 14.26 14.01L14.26 14.01L14.26 14.01Q14.12 14.62 13.84 15.07L13.84 15.07L13.84 15.07Q13.55 15.52 13.02 15.81L13.02 15.81L13.02 15.81Q12.48 16.11 11.66 16.26L11.66 16.26L11.66 16.26Q10.83 16.41 9.63 16.41L9.63 16.41L5.68 16.41L5.68 16.41Q4.48 16.41 3.65 16.26L3.65 16.26L3.65 16.26Q2.83 16.11 2.30 15.81L2.30 15.81L2.30 15.81Q1.76 15.52 1.47 15.07L1.47 15.07L1.47 15.07Q1.18 14.62 1.05 14.01L1.05 14.01L1.05 14.01Q0.92 13.40 0.90 12.63L0.90 12.63L0.90 12.63Q0.88 11.87 0.88 10.94L0.88 10.94L0.88 10.94Q0.88 10.01 0.90 9.24L0.90 9.24L0.90 9.24Q0.92 8.48 1.05 7.87L1.05 7.87L1.05 7.87Q1.18 7.26 1.47 6.81L1.47 6.81L1.47 6.81Q1.76 6.36 2.30 6.06L2.30 6.06L2.30 6.06Q2.83 5.76 3.65 5.62L3.65 5.62L3.65 5.62Q4.48 5.47 5.68 5.47L5.68 5.47ZM5.68 15.31L9.63 15.31L9.63 15.31Q10.50 15.31 11.10 15.26L11.10 15.26L11.10 15.26Q11.70 15.21 12.09 15.05L12.09 15.05L12.09 15.05Q12.48 14.90 12.69 14.60L12.69 14.60L12.69 14.60Q12.90 14.31 13.00 13.82L13.00 13.82L13.00 13.82Q13.09 13.34 13.11 12.63L13.11 12.63L13.11 12.63Q13.13 11.92 13.13 10.94L13.13 10.94L13.13 10.94Q13.13 9.95 13.11 9.25L13.11 9.25L13.11 9.25Q13.09 8.54 13.00 8.05L13.00 8.05L13.00 8.05Q12.90 7.57 12.69 7.27L12.69 7.27L12.69 7.27Q12.48 6.98 12.09 6.82L12.09 6.82L12.09 6.82Q11.70 6.67 11.10 6.61L11.10 6.61L11.10 6.61Q10.51 6.56 9.63 6.56L9.63 6.56L5.68 6.56L5.68 6.56Q4.81 6.56 4.21 6.61L4.21 6.61L4.21 6.61Q3.61 6.67 3.22 6.82L3.22 6.82L3.22 6.82Q2.83 6.98 2.62 7.27L2.62 7.27L2.62 7.27Q2.41 7.57 2.31 8.05L2.31 8.05L2.31 8.05Q2.21 8.54 2.20 9.25L2.20 9.25L2.20 9.25Q2.19 9.95 2.19 10.94L2.19 10.94L2.19 10.94Q2.19 11.92 2.20 12.63L2.20 12.63L2.20 12.63Q2.22 13.34 2.32 13.82L2.32 13.82L2.32 13.82Q2.41 14.31 2.62 14.60L2.62 14.60L2.62 14.60Q2.83 14.90 3.22 15.05L3.22 15.05L3.22 15.05Q3.61 15.21 4.21 15.26L4.21 15.26L4.21 15.26Q4.81 15.31 5.68 15.31L5.68 15.31ZM21 8.09L21 8.09L21 8.09Q22.31 8.09 23.23 8.29L23.23 8.29L23.23 8.29Q24.14 8.49 24.72 8.97L24.72 8.97L24.72 8.97Q25.29 9.45 25.55 10.25L25.55 10.25L25.55 10.25Q25.81 11.05 25.81 12.26L25.81 12.26L25.81 12.26Q25.81 13.45 25.55 14.24L25.55 14.24L25.55 14.24Q25.29 15.03 24.72 15.49L24.72 15.49L24.72 15.49Q24.14 15.96 23.23 16.15L23.23 16.15L23.23 16.15Q22.31 16.34 21 16.34L21 16.34L21 16.34Q20.06 16.34 19.43 16.24L19.43 16.24L19.43 16.24Q18.81 16.13 18.41 15.98L18.41 15.98L18.41 15.98Q18.01 15.83 17.80 15.65L17.80 15.65L17.80 15.65Q17.59 15.47 17.50 15.31L17.50 15.31L17.50 18.81L16.19 18.81L16.19 8.31L17.50 8.31L17.50 9.04L17.50 9.04Q17.59 8.91 17.80 8.74L17.80 8.74L17.80 8.74Q18.01 8.57 18.41 8.43L18.41 8.43L18.41 8.43Q18.81 8.29 19.43 8.19L19.43 8.19L19.43 8.19Q20.06 8.09 21 8.09ZM21 9.19L21 9.19L21 9.19Q20.34 9.19 19.83 9.22L19.83 9.22L19.83 9.22Q19.32 9.26 18.93 9.36L18.93 9.36L18.93 9.36Q18.54 9.47 18.27 9.67L18.27 9.67L18.27 9.67Q18.00 9.87 17.83 10.21L17.83 10.21L17.83 10.21Q17.66 10.55 17.58 11.05L17.58 11.05L17.58 11.05Q17.50 11.55 17.50 12.24L17.50 12.24L17.50 12.24Q17.50 12.95 17.58 13.45L17.58 13.45L17.58 13.45Q17.66 13.96 17.83 14.30L17.83 14.30L17.83 14.30Q18.00 14.64 18.27 14.84L18.27 14.84L18.27 14.84Q18.54 15.04 18.93 15.15L18.93 15.15L18.93 15.15Q19.32 15.25 19.83 15.28L19.83 15.28L19.83 15.28Q20.34 15.31 21 15.31L21 15.31L21 15.31Q21.77 15.31 22.32 15.26L22.32 15.26L22.32 15.26Q22.88 15.22 23.27 15.09L23.27 15.09L23.27 15.09Q23.66 14.97 23.90 14.75L23.90 14.75L23.90 14.75Q24.14 14.53 24.28 14.19L24.28 14.19L24.28 14.19Q24.41 13.86 24.46 13.38L24.46 13.38L24.46 13.38Q24.50 12.91 24.50 12.26L24.50 12.26L24.50 12.26Q24.50 11.62 24.46 11.14L24.46 11.14L24.46 11.14Q24.41 10.66 24.28 10.32L24.28 10.32L24.28 10.32Q24.14 9.98 23.90 9.76L23.90 9.76L23.90 9.76Q23.66 9.54 23.27 9.41L23.27 9.41L23.27 9.41Q22.88 9.28 22.32 9.24L22.32 9.24L22.32 9.24Q21.77 9.19 21 9.19ZM31.94 16.34L31.94 16.34L31.94 16.34Q30.63 16.34 29.71 16.16L29.71 16.16L29.71 16.16Q28.79 15.98 28.22 15.53L28.22 15.53L28.22 15.53Q27.64 15.09 27.38 14.34L27.38 14.34L27.38 14.34Q27.13 13.60 27.13 12.47L27.13 12.47L27.13 12.47Q27.13 11.18 27.38 10.33L27.38 10.33L27.38 10.33Q27.64 9.49 28.22 8.99L28.22 8.99L28.22 8.99Q28.79 8.49 29.71 8.29L29.71 8.29L29.71 8.29Q30.63 8.09 31.94 8.09L31.94 8.09L31.94 8.09Q32.87 8.09 33.56 8.23L33.56 8.23L33.56 8.23Q34.25 8.37 34.74 8.63L34.74 8.63L34.74 8.63Q35.23 8.89 35.53 9.26L35.53 9.26L35.53 9.26Q35.83 9.63 36.01 10.03L36.01 10.03L36.01 10.03Q36.18 10.44 36.25 10.99L36.25 10.99L36.25 10.99Q36.31 11.53 36.31 12.14L36.31 12.14L36.20 12.58L28.44 12.58L28.44 12.58Q28.44 13.48 28.62 14.06L28.62 14.06L28.62 14.06Q28.79 14.64 29.20 14.90L29.20 14.90L29.20 14.90Q29.61 15.17 30.28 15.24L30.28 15.24L30.28 15.24Q30.95 15.31 31.94 15.31L31.94 15.31L31.94 15.31Q32.84 15.31 33.43 15.26L33.43 15.26L33.43 15.26Q34.02 15.21 34.37 15.07L34.37 15.07L34.37 15.07Q34.72 14.92 34.86 14.67L34.86 14.67L34.86 14.67Q35 14.41 35 14L35 14L36.31 14L36.31 14Q36.31 14.64 36.09 15.08L36.09 15.08L36.09 15.08Q35.87 15.53 35.36 15.81L35.36 15.81L35.36 15.81Q34.84 16.08 34.01 16.21L34.01 16.21L34.01 16.21Q33.17 16.34 31.94 16.34ZM31.94 9.19L31.94 9.19L31.94 9.19Q31.28 9.19 30.77 9.21L30.77 9.21L30.77 9.21Q30.25 9.24 29.86 9.33L29.86 9.33L29.86 9.33Q29.48 9.43 29.20 9.60L29.20 9.60L29.20 9.60Q28.93 9.78 28.76 10.01L28.76 10.01L28.76 10.01Q28.59 10.25 28.52 10.67L28.52 10.67L28.52 10.67Q28.44 11.10 28.44 11.70L28.44 11.70L35 11.70L35 11.70Q35 10.90 34.83 10.45L34.83 10.45L34.83 10.45Q34.66 9.99 34.29 9.70L34.29 9.70L34.29 9.70Q33.92 9.41 33.34 9.30L33.34 9.30L33.34 9.30Q32.76 9.19 31.94 9.19ZM47.25 16.19L45.94 16.19L45.94 11.81L45.94 11.81Q45.94 11.08 45.83 10.58L45.83 10.58L45.83 10.58Q45.72 10.08 45.39 9.77L45.39 9.77L45.39 9.77Q45.06 9.46 44.46 9.32L44.46 9.32L44.46 9.32Q43.86 9.19 42.88 9.19L42.88 9.19L42.88 9.19Q41.81 9.19 41.13 9.34L41.13 9.34L41.13 9.34Q40.45 9.50 40.06 9.79L40.06 9.79L40.06 9.79Q39.67 10.08 39.52 10.48L39.52 10.48L39.52 10.48Q39.38 10.88 39.38 11.38L39.38 11.38L39.38 16.19L38.06 16.19L38.06 8.31L39.38 8.31L39.38 9.63L39.38 9.63Q39.52 9.29 39.79 9.05L39.79 9.05L39.79 9.05Q40.05 8.80 40.39 8.63L40.39 8.63L40.39 8.63Q40.72 8.46 41.11 8.36L41.11 8.36L41.11 8.36Q41.50 8.25 41.89 8.19L41.89 8.19L41.89 8.19Q42.28 8.13 42.65 8.11L42.65 8.11L42.65 8.11Q43.01 8.09 43.31 8.09L43.31 8.09L43.31 8.09Q44.19 8.09 44.82 8.20L44.82 8.20L44.82 8.20Q45.45 8.31 45.89 8.52L45.89 8.52L45.89 8.52Q46.33 8.74 46.60 9.05L46.60 9.05L46.60 9.05Q46.87 9.37 47.01 9.78L47.01 9.78L47.01 9.78Q47.16 10.19 47.21 10.70L47.21 10.70L47.21 10.70Q47.26 11.21 47.26 11.81L47.26 11.81L47.25 16.19ZM61.69 8.97L60.38 8.97L60.38 8.97Q60.38 8.15 60.20 7.67L60.20 7.67L60.20 7.67Q60.02 7.19 59.61 6.95L59.61 6.95L59.61 6.95Q59.20 6.70 58.53 6.63L58.53 6.63L58.53 6.63Q57.87 6.56 56.88 6.56L56.88 6.56L53.81 6.56L53.81 6.56Q52.94 6.56 52.34 6.61L52.34 6.61L52.34 6.61Q51.74 6.67 51.35 6.82L51.35 6.82L51.35 6.82Q50.96 6.98 50.75 7.27L50.75 7.27L50.75 7.27Q50.54 7.57 50.44 8.05L50.44 8.05L50.44 8.05Q50.35 8.54 50.33 9.25L50.33 9.25L50.33 9.25Q50.32 9.95 50.32 10.94L50.32 10.94L50.32 10.94Q50.32 11.92 50.34 12.63L50.34 12.63L50.34 12.63Q50.35 13.34 50.45 13.82L50.45 13.82L50.45 13.82Q50.54 14.31 50.75 14.60L50.75 14.60L50.75 14.60Q50.96 14.90 51.35 15.05L51.35 15.05L51.35 15.05Q51.74 15.21 52.34 15.26L52.34 15.26L52.34 15.26Q52.94 15.31 53.81 15.31L53.81 15.31L56.88 15.31L56.88 15.31Q57.65 15.31 58.20 15.27L58.20 15.27L58.20 15.27Q58.75 15.23 59.14 15.12L59.14 15.12L59.14 15.12Q59.53 15.01 59.77 14.82L59.77 14.82L59.77 14.82Q60.01 14.63 60.15 14.34L60.15 14.34L60.15 14.34Q60.28 14.05 60.33 13.64L60.33 13.64L60.33 13.64Q60.38 13.23 60.38 12.69L60.38 12.69L61.69 12.69L61.69 12.69Q61.69 13.34 61.61 13.87L61.61 13.87L61.61 13.87Q61.52 14.40 61.31 14.82L61.31 14.82L61.31 14.82Q61.11 15.23 60.76 15.53L60.76 15.53L60.76 15.53Q60.41 15.83 59.88 16.03L59.88 16.03L59.88 16.03Q59.34 16.22 58.60 16.31L58.60 16.31L58.60 16.31Q57.87 16.41 56.88 16.41L56.88 16.41L53.81 16.41L53.81 16.41Q52.61 16.41 51.79 16.26L51.79 16.26L51.79 16.26Q50.96 16.11 50.43 15.81L50.43 15.81L50.43 15.81Q49.90 15.52 49.60 15.07L49.60 15.07L49.60 15.07Q49.31 14.62 49.18 14.01L49.18 14.01L49.18 14.01Q49.05 13.40 49.03 12.63L49.03 12.63L49.03 12.63Q49.01 11.87 49.01 10.94L49.01 10.94L49.01 10.94Q49.01 10.01 49.03 9.24L49.03 9.24L49.03 9.24Q49.05 8.48 49.18 7.87L49.18 7.87L49.18 7.87Q49.31 7.26 49.60 6.81L49.60 6.81L49.60 6.81Q49.90 6.36 50.43 6.06L50.43 6.06L50.43 6.06Q50.96 5.76 51.79 5.62L51.79 5.62L51.79 5.62Q52.61 5.47 53.81 5.47L53.81 5.47L56.88 5.47L56.88 5.47Q57.87 5.47 58.60 5.56L58.60 5.56L58.60 5.56Q59.34 5.65 59.88 5.84L59.88 5.84L59.88 5.84Q60.41 6.03 60.76 6.32L60.76 6.32L60.76 6.32Q61.11 6.60 61.31 6.99L61.31 6.99L61.31 6.99Q61.52 7.38 61.61 7.88L61.61 7.88L61.61 7.88Q61.69 8.37 61.69 8.97L61.69 8.97ZM75.25 7L67.38 16.19L65.63 16.19L73.72 6.78L63.44 6.78L63.44 5.69L75.25 5.69L75.25 7Z"></path></g><!----><!----></svg>